<svg width="25" height="25" xmlns="http://www.w3.org/2000/svg">

 <g>
  <title>background</title>
  <rect fill="none" id="canvas_background" height="602" width="802" y="-1" x="-1"/>
 </g>
 <g>
  <title>Layer 1</title>
  <path id="svg_1" fill="currentColor" d="m24.1699,22.2803l0,-15.57907c0.0119,-0.25552 -0.1856,-0.47226 -0.4411,-0.48413c-0.0544,-0.00254 -0.1089,0.00458 -0.1609,0.02102l0,0.02315l-2.084,0.65299c0.2182,-0.5841 0.3477,-1.19761 0.3844,-1.82003c0,-2.81346 -2.2808,-5.09423 -5.0943,-5.09423c-2.8134,0 -5.0942,2.28077 -5.0942,5.09423c0.0325,0.59331 0.1527,1.17856 0.3566,1.73667l-3.44554,-1.23188c-0.04,-0.00492 -0.08041,-0.00492 -0.12041,0l-0.03705,0c-0.05552,0.00099 -0.11045,0.01199 -0.16209,0.03242l-7.14582,2.77867c-0.16481,0.0627 -0.27972,0.2135 -0.29639,0.38902l0,7.44687l0,8.1507c0.00075,0.2558 0.20869,0.4625 0.4645,0.4618c0.05656,-0.0002 0.1126,-0.0107 0.16533,-0.0311l6.98373,-2.7045l7.96554,2.8527c0.0961,0.0325 0.2002,0.0325 0.2964,0l7.1412,-2.2322c0.2006,-0.0628 0.3338,-0.253 0.3241,-0.4631zm-7.3959,-21.35408c2.302,0 4.1681,1.86606 4.1681,4.16801c0,1.81077 -2.7185,6.81237 -4.1681,9.26227c-1.4495,-2.4684 -4.168,-7.47466 -4.168,-9.26227c0,-2.30195 1.8661,-4.16801 4.168,-4.16801zm6.4836,21.03458l-6.2335,1.9497l0,-3.5336c0,-0.2557 -0.2073,-0.4631 -0.4631,-0.4631c-0.2557,0 -0.4631,0.2074 -0.4631,0.4631l0,3.5012l-7.19676,-2.5749l0,-2.964c0,-0.2557 -0.20736,-0.4631 -0.46311,-0.4631c-0.25575,0 -0.46311,0.2074 -0.46311,0.4631l0,2.964l-6.21959,2.422l0,-7.1597l2.28777,-0.9262c0.24481,-0.0741 0.38317,-0.3326 0.30907,-0.5775c-0.0741,-0.2448 -0.33263,-0.3831 -0.57744,-0.309c-0.02559,0.0077 -0.05048,0.0177 -0.07439,0.0297l-1.94507,0.7827l0,-6.44652l6.21959,-2.40819l0,1.38934c0,0.25575 0.20736,0.46311 0.46311,0.46311c0.25576,0 0.46311,-0.20736 0.46311,-0.46311l0,-1.40786l3.55212,1.27356c1.1391,2.60317 2.4495,5.12807 3.9225,7.55797c0.1326,0.2187 0.4174,0.2884 0.6362,0.1558c0.0636,-0.0386 0.1171,-0.0921 0.1557,-0.1558c1.4658,-2.4156 2.7715,-4.925 3.9087,-7.51166l2.1674,-0.68078l0.0139,7.59044l-2.348,0.5696c-0.2558,0.0307 -0.4382,0.2629 -0.4076,0.5187c0.0307,0.2557 0.263,0.4382 0.5187,0.4075c0.037,0.0045 0.0742,0.0045 0.1112,0l2.1257,-0.5187l0,6.0622l0,0z"/>
  <g stroke="null" id="svg_6">
   <path stroke="null" id="svg_5" fill="currentColor" d="m16.82432,1.90424c-1.71506,0 -3.10541,1.40764 -3.10541,3.14402c0,1.73638 1.39035,3.14402 3.10541,3.14402c1.71386,-0.00298 3.10247,-1.40886 3.10541,-3.14402c0,-1.73638 -1.39035,-3.14402 -3.10541,-3.14402zm0,5.20577c-1.11509,-0.01475 -2.01224,-0.93266 -2.01504,-2.06175l-0.02139,0c0,-1.13869 0.91172,-2.06175 2.03643,-2.06175c1.12471,0 2.03643,0.92306 2.03643,2.06175c0,1.13869 -0.91172,2.06175 -2.03643,2.06175z"/>
  </g>
  <g stroke="null" id="svg_11">
   <path stroke="null" id="svg_10" fill="currentColor" d="m11.04604,14.4496l0,0.01595l-2.51252,-1.11128c-0.1279,-0.05464 -0.27183,-0.05464 -0.39972,0l-2.12318,0.87732c-0.26664,0.11013 -0.39563,0.42079 -0.28811,0.69389c0.10752,0.27311 0.41082,0.40523 0.67745,0.29511l1.92073,-0.79226l2.31007,0.99962c0.06561,0.02865 0.13634,0.04314 0.20765,0.04254c0.28668,0.00239 0.521,-0.23369 0.52333,-0.5274c0.00169,-0.21468 -0.12283,-0.40936 -0.31569,-0.49349z"/>
  </g>
  <g stroke="null" id="svg_16">
   <path stroke="null" id="svg_15" fill="currentColor" d="m18.42639,16.6691c-0.07348,-0.25733 -0.31237,-0.41511 -0.55725,-0.36811l0.00493,-0.04274l-1.22311,0.32051l-2.07142,-0.97219c-0.25061,-0.11799 -0.54207,0.00634 -0.65101,0.27777c-0.10893,0.27142 0.00586,0.58712 0.25645,0.7051l2.21937,1.06835c0.06233,0.02878 0.12953,0.04333 0.19728,0.04274l0.11836,0l1.38094,-0.36324c0.26022,-0.0872 0.4059,-0.38634 0.32545,-0.66818z"/>
  </g>
 </g>
</svg>
