<svg width="25" height="26.000000000000004" xmlns="http://www.w3.org/2000/svg">

 <g>
  <title>background</title>
  <rect fill="none" id="canvas_background" height="28" width="27" y="-1" x="-1"/>
 </g>
 <g>
  <title>Layer 1</title>
  <path id="svg_1" fill="#2D383F" d="m24.10157,24.77613l-4.0406,-9.39785l-3.8164,-8.88265c-0.1032,-0.2424 -0.3834,-0.35516 -0.6258,-0.25194c-0.1133,0.0483 -0.2036,0.13858 -0.2519,0.25194l-3.4062,7.9047l-1.33569,3.1056l-2.92908,-6.75979c-0.10329,-0.2424 -0.38349,-0.35517 -0.62583,-0.25195c-0.11336,0.04831 -0.20364,0.13859 -0.25194,0.25195l-2.75258,6.35909l-3.33934,7.6661c-0.10537,0.2415 0.00495,0.5227 0.24639,0.6281c0.06071,0.0265 0.12624,0.0401 0.19249,0.0398l22.49768,0c0.2634,-0.0002 0.4768,-0.2139 0.4766,-0.4774c0,-0.0638 -0.0129,-0.1269 -0.0378,-0.1857zm-8.3006,-16.89229l3.096,7.19867l-1.0876,0l-1.9655,-2.17057c-0.1772,-0.19499 -0.4789,-0.20937 -0.6739,-0.03214c-0.0306,0.02779 -0.0574,0.05945 -0.0798,0.09416l-0.7347,1.13537l-1.2308,0l2.6763,-6.22549zm-8.54396,4.2362l2.44726,5.65779l-1.33574,0c-0.16219,0.0003 -0.31312,0.083 -0.40072,0.2195l-0.47705,0.7585l-1.23078,-1.7365c-0.08897,-0.1283 -0.23507,-0.2049 -0.39118,-0.2051l-0.63448,0l2.02269,-4.69419zm-5.34295,12.36509l2.90523,-6.7168l0.80144,0l1.48839,2.1228c0.08897,0.1283 0.23507,0.2049 0.39118,0.2052c0.1588,-0.0035 0.30544,-0.0858 0.39119,-0.2195l0.73465,-1.1354l1.48839,0l2.48544,5.7246l-10.68591,0.0191zm11.73061,0l-2.4997,-5.7723l1.5695,-3.6494l1.9082,0c0.1622,-0.0003 0.3131,-0.08295 0.4007,-0.21944l0.5295,-0.81576l1.6888,1.8653c0.0901,0.0999 0.2184,0.1571 0.353,0.1574l1.7078,0l3.6304,8.4485l-9.2882,-0.0143z"/>
  <g stroke="null" transform="rotate(0.6178176403045654 6.025020599365277,4.717345714569084) " id="svg_6">
   <path stroke="null" id="svg_5" fill="#2D383F" d="m7.47611,2.81657c-0.43374,-1.12147 -1.69115,-1.67761 -2.80838,-1.24221c-0.83189,0.32414 -1.38125,1.12643 -1.3847,2.02211c-0.00454,0.07995 -0.00454,0.16002 0,0.23998c-1.08701,0.50671 -1.55891,1.80199 -1.05408,2.89305c0.3496,0.75551 1.09788,1.24474 1.92764,1.26032l0.02299,0.01846l3.21838,0c1.42833,0.0217 2.60367,-1.12296 2.62528,-2.55663c0.02155,-1.43366 -1.11879,-2.61339 -2.54711,-2.63508zm-0.05058,4.28259l-3.21837,0c-0.68816,0.07135 -1.30362,-0.43068 -1.37471,-1.12141c-0.07109,-0.69073 0.42908,-1.30849 1.11724,-1.37984c0.2489,-0.05036 0.41006,-0.29368 0.35988,-0.54357c-0.00386,-0.0191 -0.00885,-0.03796 -0.01505,-0.05636c-0.04489,-0.12911 -0.06817,-0.26478 -0.06897,-0.4015c-0.00391,-0.69326 0.55275,-1.25841 1.24344,-1.26239c0.61098,-0.00352 1.13499,0.43661 1.2393,1.04088c0.04224,0.24263 0.2669,0.40916 0.51035,0.37842c0.06891,-0.00456 0.13798,-0.00456 0.20689,0c0.92045,0 1.66666,0.74899 1.66666,1.67288c0,0.9239 -0.7462,1.67289 -1.66666,1.67289z"/>
  </g>
  <g id="svg_11">
   <path id="svg_10" fill="#2D383F" d="m23.65681,3.04653c0.00437,-0.07663 0.00437,-0.15338 0,-0.23003c-0.00448,-1.15314 -0.94291,-2.08432 -2.09605,-2.0799c-0.85233,0.00332 -1.61586,0.52454 -1.93093,1.31521c-1.3673,0.02864 -2.45669,1.15602 -2.436,2.52531c0.02079,1.37426 1.15164,2.4715 2.52591,2.45071l3.09656,0c1.15297,-0.02157 2.07016,-0.97365 2.0486,-2.12663c-0.01493,-0.79836 -0.4839,-1.51831 -1.2081,-1.85468zm0.33321,2.13984c-0.11712,0.54942 -0.59874,0.94468 -1.16044,0.95231l-3.09656,0c-0.88562,0 -1.60359,-0.71796 -1.60359,-1.60358c0,-0.88562 0.71796,-1.60359 1.60359,-1.60359c0.06629,-0.00437 0.13276,-0.00437 0.19906,0c0.22384,0.02323 0.42943,-0.12524 0.47775,-0.34505c0.11087,-0.6552 0.7319,-1.09646 1.38715,-0.98559c0.6552,0.11087 1.09646,0.7319 0.9856,1.38714c-0.01129,0.06652 -0.0281,0.13199 -0.05032,0.1957c-0.07813,0.23147 0.04623,0.48245 0.27775,0.56059c0.01769,0.00597 0.03572,0.01084 0.05402,0.01448c0.64994,0.13846 1.0645,0.77763 0.92598,1.42757z"/>
  </g>
 </g>
</svg>